<?xml version="1.0" encoding="UTF-8"?>
<svg width="512" height="512" viewBox="0 0 512 512" xmlns="http://www.w3.org/2000/svg">
  <defs>
    <linearGradient id="primaryGradient" x1="0%" y1="0%" x2="100%" y2="100%">
      <stop offset="0%" style="stop-color:#4A90E2;stop-opacity:1" />
      <stop offset="100%" style="stop-color:#2E5BBA;stop-opacity:1" />
    </linearGradient>
    <linearGradient id="accentGradient" x1="0%" y1="0%" x2="100%" y2="100%">
      <stop offset="0%" style="stop-color:#50E3C2;stop-opacity:1" />
      <stop offset="100%" style="stop-color:#29B89F;stop-opacity:1" />
    </linearGradient>
    <filter id="shadow" x="-50%" y="-50%" width="200%" height="200%">
      <feDropShadow dx="0" dy="4" stdDeviation="8" flood-color="#000000" flood-opacity="0.2"/>
    </filter>
  </defs>
  
  <!-- Background Circle -->
  <circle cx="256" cy="256" r="240" fill="url(#primaryGradient)" filter="url(#shadow)"/>
  
  <!-- Terminal/Console Icon -->
  <rect x="96" y="160" width="320" height="240" rx="16" ry="16" fill="#1E1E1E" stroke="#333" stroke-width="2"/>
  
  <!-- Terminal Content -->
  <rect x="106" y="170" width="300" height="20" rx="2" fill="#333"/>
  <circle cx="120" cy="180" r="6" fill="#FF5F56"/>
  <circle cx="140" cy="180" r="6" fill="#FFBD2E"/>
  <circle cx="160" cy="180" r="6" fill="#27CA3F"/>
  
  <!-- Command Prompt -->
  <text x="120" y="220" font-family="monospace" font-size="16" fill="#50E3C2" font-weight="bold">$</text>
  <text x="140" y="220" font-family="monospace" font-size="16" fill="#FFFFFF">drun</text>
  
  <!-- Script Lines -->
  <rect x="120" y="240" width="120" height="3" rx="1" fill="url(#accentGradient)"/>
  <rect x="120" y="260" width="200" height="3" rx="1" fill="#4A90E2"/>
  <rect x="120" y="280" width="160" height="3" rx="1" fill="#4A90E2"/>
  <rect x="120" y="300" width="180" height="3" rx="1" fill="#4A90E2"/>
  
  <!-- Play/Run Icon -->
  <circle cx="360" cy="280" r="32" fill="url(#accentGradient)"/>
  <polygon points="350,265 350,295 375,280" fill="#FFFFFF"/>
  
  <!-- Dots Pattern -->
  <circle cx="140" cy="340" r="2" fill="#50E3C2"/>
  <circle cx="160" cy="340" r="2" fill="#50E3C2"/>
  <circle cx="180" cy="340" r="2" fill="#50E3C2"/>
</svg>